<mxfile host="app.diagrams.net" agent="Mozilla/5.0 (Windows NT 10.0; Win64; x64) AppleWebKit/537.36 (KHTML, like Gecko) Chrome/131.0.0.0 Safari/537.36" version="24.8.6">
  <diagram name="Trang-1" id="CNICpPtvZP634g-mYIk0">
    <mxGraphModel dx="1221" dy="759" grid="1" gridSize="10" guides="1" tooltips="1" connect="1" arrows="1" fold="1" page="1" pageScale="1" pageWidth="827" pageHeight="1169" math="0" shadow="0">
      <root>
        <mxCell id="0" />
        <mxCell id="1" parent="0" />
        <mxCell id="3UJyp0OC6Y3F3wvQwUww-1" value="Bắt đầu" style="ellipse;whiteSpace=wrap;html=1;" vertex="1" parent="1">
          <mxGeometry x="350" y="190" width="120" height="80" as="geometry" />
        </mxCell>
        <mxCell id="3UJyp0OC6Y3F3wvQwUww-17" value="" style="edgeStyle=orthogonalEdgeStyle;rounded=0;orthogonalLoop=1;jettySize=auto;html=1;" edge="1" parent="1" source="3UJyp0OC6Y3F3wvQwUww-2" target="3UJyp0OC6Y3F3wvQwUww-16">
          <mxGeometry relative="1" as="geometry" />
        </mxCell>
        <mxCell id="3UJyp0OC6Y3F3wvQwUww-2" value="Nhập vào số a" style="shape=parallelogram;perimeter=parallelogramPerimeter;whiteSpace=wrap;html=1;fixedSize=1;" vertex="1" parent="1">
          <mxGeometry x="350" y="330" width="120" height="60" as="geometry" />
        </mxCell>
        <mxCell id="3UJyp0OC6Y3F3wvQwUww-3" style="edgeStyle=orthogonalEdgeStyle;rounded=0;orthogonalLoop=1;jettySize=auto;html=1;exitX=0.5;exitY=1;exitDx=0;exitDy=0;entryX=0.5;entryY=0;entryDx=0;entryDy=0;" edge="1" parent="1" source="3UJyp0OC6Y3F3wvQwUww-1" target="3UJyp0OC6Y3F3wvQwUww-2">
          <mxGeometry relative="1" as="geometry" />
        </mxCell>
        <mxCell id="3UJyp0OC6Y3F3wvQwUww-19" value="" style="edgeStyle=orthogonalEdgeStyle;rounded=0;orthogonalLoop=1;jettySize=auto;html=1;" edge="1" parent="1" source="3UJyp0OC6Y3F3wvQwUww-16" target="3UJyp0OC6Y3F3wvQwUww-18">
          <mxGeometry relative="1" as="geometry" />
        </mxCell>
        <mxCell id="3UJyp0OC6Y3F3wvQwUww-16" value="a%2" style="whiteSpace=wrap;html=1;" vertex="1" parent="1">
          <mxGeometry x="350" y="470" width="120" height="60" as="geometry" />
        </mxCell>
        <mxCell id="3UJyp0OC6Y3F3wvQwUww-21" value="đúng" style="edgeStyle=orthogonalEdgeStyle;rounded=0;orthogonalLoop=1;jettySize=auto;html=1;" edge="1" parent="1" source="3UJyp0OC6Y3F3wvQwUww-18" target="3UJyp0OC6Y3F3wvQwUww-20">
          <mxGeometry relative="1" as="geometry" />
        </mxCell>
        <mxCell id="3UJyp0OC6Y3F3wvQwUww-23" value="sai" style="edgeStyle=orthogonalEdgeStyle;rounded=0;orthogonalLoop=1;jettySize=auto;html=1;" edge="1" parent="1" source="3UJyp0OC6Y3F3wvQwUww-18" target="3UJyp0OC6Y3F3wvQwUww-22">
          <mxGeometry relative="1" as="geometry" />
        </mxCell>
        <mxCell id="3UJyp0OC6Y3F3wvQwUww-18" value="a%2=0" style="rhombus;whiteSpace=wrap;html=1;" vertex="1" parent="1">
          <mxGeometry x="370" y="600" width="80" height="80" as="geometry" />
        </mxCell>
        <mxCell id="3UJyp0OC6Y3F3wvQwUww-25" style="edgeStyle=orthogonalEdgeStyle;rounded=0;orthogonalLoop=1;jettySize=auto;html=1;exitX=0.5;exitY=1;exitDx=0;exitDy=0;entryX=0.5;entryY=0;entryDx=0;entryDy=0;" edge="1" parent="1" source="3UJyp0OC6Y3F3wvQwUww-20" target="3UJyp0OC6Y3F3wvQwUww-24">
          <mxGeometry relative="1" as="geometry" />
        </mxCell>
        <mxCell id="3UJyp0OC6Y3F3wvQwUww-20" value="a là số chắn" style="whiteSpace=wrap;html=1;" vertex="1" parent="1">
          <mxGeometry x="350" y="770" width="120" height="60" as="geometry" />
        </mxCell>
        <mxCell id="3UJyp0OC6Y3F3wvQwUww-26" style="edgeStyle=orthogonalEdgeStyle;rounded=0;orthogonalLoop=1;jettySize=auto;html=1;exitX=1;exitY=0.5;exitDx=0;exitDy=0;entryX=1;entryY=0.5;entryDx=0;entryDy=0;" edge="1" parent="1" source="3UJyp0OC6Y3F3wvQwUww-22" target="3UJyp0OC6Y3F3wvQwUww-24">
          <mxGeometry relative="1" as="geometry" />
        </mxCell>
        <mxCell id="3UJyp0OC6Y3F3wvQwUww-22" value="a là số lẻ" style="whiteSpace=wrap;html=1;" vertex="1" parent="1">
          <mxGeometry x="510" y="610" width="120" height="60" as="geometry" />
        </mxCell>
        <mxCell id="3UJyp0OC6Y3F3wvQwUww-24" value="Kết thúc" style="ellipse;whiteSpace=wrap;html=1;" vertex="1" parent="1">
          <mxGeometry x="350" y="900" width="120" height="80" as="geometry" />
        </mxCell>
      </root>
    </mxGraphModel>
  </diagram>
</mxfile>
